<svg xmlns="http://www.w3.org/2000/svg" version="1.1" viewBox="0 0 100 100">
 <path fill="#2563eb" d="m55 12.887 24.641 14.227c3.0938 1.7852 5 5.0859 5 8.6602v28.453c0 3.5742-1.9062 6.875-5 8.6602l-24.641 14.227c-3.0938 1.7852-6.9062 1.7852-10 0l-24.641-14.227c-3.0938-1.7852-5-5.0859-5-8.6602v-28.453c0-3.5742 1.9062-6.875 5-8.6602l24.641-14.227c3.0938-1.7852 6.9062-1.7852 10 0zm9.7227 28.613c-0.82812-1.4336-2.6641-1.9258-4.0977-1.0977l-10.625 6.1328-10.625-6.1328c-1.4336-0.82812-3.2695-0.33594-4.0977 1.0977l-0.085938 0.16016c-0.70312 1.4102-0.19922 3.1406 1.1836 3.9375l10.625 6.1328v12.27c0 1.6562 1.3438 3 3 3l0.17578-0.003906c1.5742-0.09375 2.8242-1.3984 2.8242-2.9961v-12.27l10.625-6.1328c1.4336-0.82812 1.9258-2.6641 1.0977-4.0977z" fill-rule="evenodd"/>
 </svg>